<svg width="30" height="24" viewBox="0 0 30 24" fill="none" xmlns="http://www.w3.org/2000/svg">
<path fill-rule="evenodd" clip-rule="evenodd" d="M10.8269 2C9.61497 2 8.46841 2.54944 7.70916 3.49403L2.88644 9.49403C1.71005 10.9576 1.71005 13.0424 2.88644 14.506L7.70916 20.506C8.46841 21.4506 9.61497 22 10.8269 22H11.9053H11.9432H24C26.2091 22 28 20.2091 28 18V6C28 3.79086 26.2091 2 24 2H11.9432H11.9053H10.8269Z" fill="#333333"/>
<path d="M15.7562 8.46446C14.9751 7.68341 13.7088 7.68341 12.9277 8.46446V8.46446L16.4633 12L12.9277 15.5355V15.5355C13.7088 16.3166 14.9751 16.3166 15.7562 15.5355L17.8775 13.4142L19.9988 15.5355C20.7799 16.3166 22.0462 16.3166 22.8272 15.5355V15.5355L19.2917 12L22.8272 8.46446V8.46446C22.0462 7.68341 20.7799 7.68341 19.9988 8.46446L17.8775 10.5858L15.7562 8.46446Z" fill="white"/>
</svg>
