<svg width="24" height="24" viewBox="0 0 24 24" fill="none" xmlns="http://www.w3.org/2000/svg">
<rect x="2" y="2" width="20" height="20" rx="10" fill="#2FD159"/>
<path d="M16.685 14.6128C17.0196 14.9474 17.1214 15.4699 16.824 15.838C16.7513 15.928 16.6734 16.0147 16.5904 16.0978C14.8455 17.8426 11.8811 16.9172 9.4819 14.5181C7.08275 12.1189 6.15741 9.15449 7.90225 7.40965C7.98528 7.32662 8.07197 7.24874 8.16203 7.17597C8.53013 6.87856 9.05262 6.98036 9.38724 7.31499L10.3261 8.25388C10.7845 8.71225 10.7577 9.46325 10.2679 9.8878L9.4819 10.569C9.4819 10.569 8.88953 10.7664 11.0616 12.9384C13.2336 15.1105 13.431 14.5181 13.431 14.5181L14.1122 13.7321C14.5367 13.2423 15.2878 13.2155 15.7461 13.6739L16.685 14.6128Z" fill="white"/>
</svg>
